<?xml version="1.0" encoding="UTF-8"?><svg xmlns="http://www.w3.org/2000/svg" xmlns:xlink="http://www.w3.org/1999/xlink" viewBox="0 0 230.16 57.72"><defs><style>.o{letter-spacing:0em;}.p{letter-spacing:-.04em;}.q{fill:url(#l);}.r{fill:url(#m);}.s{letter-spacing:-.02em;}.t{fill:url(#f);}.u{fill:url(#g);}.v{fill:url(#i);}.w{fill:url(#h);}.x{fill:url(#d);}.y{fill:url(#e);}.a`{fill:none;}.aa{letter-spacing:0em;}.ab{fill:url(#n);}.ac{fill:#fff;font-family:NewYork, NewYork;font-size:18.9px;}.ad{letter-spacing:-.08em;}.ae{fill:url(#j);}.af{fill:url(#k);}</style><linearGradient id="d" x1="17.15" y1="28.2" x2="74.87" y2="28.2" gradientTransform="matrix(1, 0, 0, 1, 0, 0)" gradientUnits="userSpaceOnUse"><stop offset="0" stop-color="#373a40"/><stop offset=".13" stop-color="#3a3c42"/><stop offset=".24" stop-color="#454648"/><stop offset=".35" stop-color="#565553"/><stop offset=".45" stop-color="#6f6b63"/><stop offset=".55" stop-color="#8f8777"/><stop offset=".65" stop-color="#b6a98f"/><stop offset=".65" stop-color="#b8aa90"/><stop offset="1" stop-color="#eee"/></linearGradient><linearGradient id="e" x1="10.58" y1="-9.61" x2="39.62" y2="53.73" gradientTransform="matrix(1, 0, 0, 1, 0, 0)" gradientUnits="userSpaceOnUse"><stop offset="0" stop-color="#373a40"/><stop offset=".3" stop-color="#3a3d43"/><stop offset=".55" stop-color="#43474e"/><stop offset=".79" stop-color="#53575f"/><stop offset="1" stop-color="#686d76"/></linearGradient><linearGradient id="f" x1="8.31" y1="-8.57" x2="37.35" y2="54.77" xlink:href="#e"/><linearGradient id="g" x1="4.97" y1="-7.03" x2="34.01" y2="56.3" xlink:href="#e"/><linearGradient id="h" x1="2.47" y1="-5.89" x2="31.51" y2="57.44" xlink:href="#e"/><linearGradient id="i" x1="45.36" y1="52.42" x2="84.98" y2="2.22" xlink:href="#d"/><linearGradient id="j" x1="50.11" y1="56.17" x2="89.73" y2="5.97" xlink:href="#d"/><linearGradient id="k" x1="53.47" y1="58.82" x2="93.09" y2="8.62" xlink:href="#d"/><linearGradient id="l" x1="51.81" y1="62.22" x2="48.12" y2="15.71" xlink:href="#e"/><linearGradient id="m" x1="42.37" y1="62.97" x2="38.68" y2="16.46" xlink:href="#e"/><linearGradient id="n" x1="54.23" y1="59.42" x2="93.85" y2="9.22" xlink:href="#d"/></defs><g id="a"/><g id="b"><g id="c"><g><g><path class="x" d="M23.34,43.37l-.82-.3s-.26,2.31,1.34,4.26c.11,.13,.22,.25,.34,.38,.87,1,1.8,1.96,2.8,2.82,.14-.46,.3-1.03,.37-1.21,0-.03,.02-.05,.02-.06,.08-.24,.16-.48,.27-.72-1.65-1.53-3.09-3.27-4.31-5.17Zm31.29,13.03h.02s.11-.03,.15-.05c.1-.03,.19-.06,.29-.1,.11-.03,.23-.08,.37-.13l.17-.06c.13-.05,.25-.09,.38-.13l-1.38,.46ZM19.5,33.6l-2.07-.75c.3,2.16,.84,4.24,1.59,6.22l2.42,.8c-.9-1.98-1.55-4.07-1.94-6.27Zm52.69,1.54c-.44,1.9-1.1,3.7-1.93,5.42l2.49-.88c.69-1.67,1.21-3.41,1.57-5.22l-2.13,.68Zm2.38-10.35l-1.86,.6c.15,1.14,.23,2.29,.23,3.47,0,.5,0,.99-.05,1.49l1.96-.66c.02-.28,.02-.56,.02-.84,0-1.38-.1-2.74-.3-4.07ZM46.01,0c-10.35,0-19.46,5.48-24.55,13.7l1.71,.94C27.92,7.02,36.38,1.93,46.01,1.93s18.31,5.21,23.03,12.99l1.76-.81C65.77,5.67,56.53,0,46.01,0ZM20.57,15.24c-1.14,2.11-2.01,4.38-2.59,6.76l1.83,.63c.56-2.37,1.44-4.62,2.59-6.7l-1.83-.68Zm51.21,.67l-1.86,.6c1.05,2,1.84,4.15,2.34,6.41l1.84-.62c-.52-2.25-1.3-4.39-2.32-6.39ZM19.4,24.68l-1.83-.67c-.29,1.58-.42,3.2-.42,4.85,0,.44,0,.88,.04,1.31l1.97,.66c-.06-.65-.08-1.3-.08-1.97,0-1.43,.12-2.81,.33-4.18Z"/><path class="y" d="M46.9,27.71c-.08,1.14-.57,2.27-1.5,3.42-.04,.05-.07,.09-.12,.13l-25.48-8.65-1.83-.63-12.66-4.29C-.71,14.13,.03,7.61,.03,7.61l20.54,7.62,1.83,.68,23.85,8.86c.08,.14,.15,.29,.21,.43,.36,.85,.51,1.68,.44,2.5Z"/><path class="t" d="M43.17,33.36c-1.41,1.2-2.93,2.31-4.41,3.39l-.23,.18c-.1,.07-.18,.13-.28,.2l-19.1-6.31-1.97-.66-5.94-1.96c-4.82-2.85-4.23-8.06-4.23-8.06l10.55,3.86,1.83,.67,23.77,8.68Z"/><path class="u" d="M35.28,39.37c-.36,.28-.71,.57-1.09,.89-1.12,.93-2.04,1.81-2.84,2.68-.05,.06-.11,.11-.14,.16l-9.76-3.23-2.42-.8-.55-.18c-4.18-2.48-3.67-7-3.67-7l2.63,.96,2.07,.75,15.78,5.76Z"/><path class="w" d="M29.27,45.53c-.68,.99-1.23,2-1.63,3.01-.11,.24-.19,.48-.27,.72,0,0,0,.03-.02,.06h0l-1.87-.62c-.51-.3-.93-.64-1.28-.99-.12-.13-.23-.25-.34-.38-1.6-1.95-1.34-4.26-1.34-4.26l.82,.3,5.94,2.16Z"/><path class="v" d="M84.78,18.68l-10.67,3.61-1.84,.62-11.62,3.93s0-.03-.02-.04c-.24-.54-.53-1.05-.86-1.51-1.13-1.63-2.8-2.94-4.98-3.9l15.13-4.89,1.86-.6,11.71-3.78c4.51-.98,8.69-4.51,8.69-4.51,0,.08,0,.15,.02,.23,.25,4.86-2.82,9.27-7.43,10.83Z"/><path class="ae" d="M81.24,27.56l-6.39,2.14-1.96,.66-11.44,3.84c.26-1.8,.23-3.52-.09-5.08,0-.02,0-.03,0-.05l11.35-3.67,1.86-.6,5.77-1.86c3.18-.69,6.14-3.19,6.14-3.19,0,.06,0,.12,0,.16,.17,3.44-2,6.55-5.25,7.65Z"/><path class="af" d="M82.1,30.99c.16,3.19-1.86,6.08-4.89,7.1l-4.46,1.59-2.49,.88h0l-12.17,4.34c.34-.97,.69-1.93,1.05-2.89,.34-.88,.67-1.76,.97-2.66l.03-.08c.03-.09,.07-.18,.1-.27l11.95-3.86,2.13-.68,2.06-.67c2.96-.65,5.71-2.96,5.71-2.96,0,.05,0,.1,0,.15Z"/><path class="q" d="M60.48,34.28c-.05,.29-.11,.59-.16,.87-.23,1.15-.59,2.38-1.11,3.88l-.03,.1c-.3,.86-.62,1.71-.94,2.55-.37,.98-.74,1.96-1.07,2.94-.04,.12-.09,.25-.11,.34-.45,1.33-.77,2.56-.98,3.75-.26,1.38-.36,2.63-.29,3.82,0,.29,.03,.82,.06,1.4,.05,.66,.1,1.38,.16,1.9,0,.04,0,.08,.02,.12,0,0-.02,0-.03,0l-1.38,.46c-2.73,.86-5.62,1.32-8.62,1.32-2.02,0-4-.21-5.91-.61,.14-.51,.36-1.21,.55-1.86,.16-.58,.34-1.11,.43-1.39,.38-1.14,.85-2.3,1.4-3.47,.46-1.03,.97-2.03,1.54-2.97,.64-1.14,1.38-2.28,2.23-3.42,.09-.13,.17-.24,.29-.38,.62-.82,1.26-1.61,1.92-2.41,1.42-1.74,2.88-3.53,4-5.53,2.02-3.66,2.39-7.42,1-10.32-.9-1.89-2.61-3.51-4.86-4.62,1.01,.13,1.98,.3,2.81,.51,.83,.2,1.67,.47,2.5,.8,2.27,.92,3.96,2.19,5.07,3.79,.29,.41,.55,.87,.76,1.36,.3,.65,.52,1.36,.67,2.1,.31,1.51,.33,3.19,.06,4.97Z"/><path class="r" d="M51.61,35.22c-1.07,1.93-2.52,3.68-3.9,5.39-.66,.81-1.31,1.61-1.92,2.42-.12,.13-.22,.27-.32,.4-.86,1.17-1.63,2.34-2.28,3.5-.58,.97-1.11,2-1.58,3.07-.56,1.19-1.04,2.39-1.43,3.55-.11,.31-.28,.88-.47,1.49-.19,.66-.4,1.36-.54,1.86-4.24-1.04-8.12-3.01-11.37-5.69,.13-.43,.44-1.51,.47-1.59l.14-.4c.4-1.1,.98-2.19,1.73-3.25,.55-.79,1.18-1.57,1.93-2.38,.77-.84,1.67-1.69,2.78-2.62,.42-.35,.84-.69,1.27-1.02,.97-.76,1.99-1.5,3-2.24l.23-.17c1.53-1.12,3.11-2.27,4.59-3.54l.08-.08c.87-.74,1.59-1.47,2.15-2.19,1.06-1.31,1.62-2.61,1.72-3.95,.08-.96-.1-1.96-.52-2.95-.37-.87-.92-1.7-1.62-2.47-.73-.79-1.58-1.55-2.56-2.29,.08,0,.15,.02,.24,.03,.05,.02,.11,.03,.14,.03h.02c1.64,.33,2.93,.72,4.11,1.24,2.3,1.01,4.05,2.58,4.92,4.41,1.23,2.57,.87,6.11-.98,9.45Z"/><path class="ab" d="M72.81,42.2c-2.7,5.11-7.7,8.97-11.42,11.33-1.29,.78-2.86,1.48-4.23,2.01v-.03h0c-.02-.07-.02-.12-.03-.17-.09-.74-.19-1.63-.26-2.35-.05-.57-.09-1.04-.1-1.31,0-.13-.02-.26-.02-.4,0-.29,.03-.59,.06-.89,.05-.4,.11-.83,.18-1.26,0-.04,0-.07,.02-.11,7.38-1.95,14.21-6.05,15.68-6.96,.07-.05,.16,.05,.12,.13Z"/><path d="M54.63,56.4l1.38-.46c-.13,.05-.25,.09-.38,.13l-.17,.06c-.13,.05-.26,.1-.37,.13-.1,.04-.19,.07-.29,.1-.05,.02-.11,.03-.15,.05-.02,0-.03,0-.05,.02l.03-.02Z"/><path d="M60.43,53.94c-1,.61-2.24,1.16-3.32,1.58l3.32-1.58Z"/><line class="a`" x1="70.8" y1="14.11" x2="69.04" y2="14.92"/><line class="a`" x1="23.16" y1="14.63" x2="21.46" y2="13.7"/></g><text class="ac" transform="translate(99.2 24.01)"><tspan class="s" x="0" y="0">P</tspan><tspan class="o" x="10" y="0">r</tspan><tspan x="17.47" y="0">i</tspan><tspan class="o" x="21.13" y="0">m</tspan><tspan class="aa" x="36.43" y="0">e</tspan><tspan class="o" x="0" y="22.68">E</tspan><tspan class="p" x="9.22" y="22.68">x</tspan><tspan x="18.7" y="22.68">ec</tspan><tspan class="o" x="39.64" y="22.68">ut</tspan><tspan x="56.56" y="22.68">i</tspan><tspan class="p" x="60.23" y="22.68">v</tspan><tspan class="aa" x="69.15" y="22.68">e </tspan><tspan class="ad" x="84.04" y="22.68">T</tspan><tspan x="94.1" y="22.68">ou</tspan><tspan class="p" x="115.4" y="22.68">r</tspan><tspan x="122.3" y="22.68">s</tspan></text></g></g></g></svg>