<?xml version="1.0" encoding="UTF-8"?><svg xmlns="http://www.w3.org/2000/svg" viewBox="0 0 106.1 106.11"><defs><style>.d,.e{fill:#fff;}.d,.e,.f{stroke:#000;stroke-miterlimit:10;}.d,.f{stroke-width:.75px;}.e{stroke-width:.25px;}</style></defs><g id="a"/><g id="b"><g id="c"><path class="e" d="M53.05,.12C23.82,.12,.12,23.82,.12,53.06s23.7,52.93,52.93,52.93,52.92-23.7,52.92-52.93S82.29,.12,53.05,.12Zm-.07,26.71c10.53,0,19.76,5.67,24.79,14.11l-1.76,.81c-4.72-7.78-13.28-12.99-23.03-12.99s-18.09,5.09-22.84,12.7l-1.71-.93c5.09-8.21,14.2-13.7,24.55-13.7ZM6.22,37.02l20.54,7.62,1.83,.69,23.85,8.85c.08,.15,.16,.29,.21,.44,.36,.85,.52,1.67,.45,2.49-.08,1.14-.57,2.27-1.51,3.43-.03,.04-.06,.08-.11,.13l-25.48-8.65-1.83-.62-12.66-4.29c-6.03-3.58-5.29-10.09-5.29-10.09Zm6.53,12.04l10.56,3.86,1.83,.66,23.77,8.69c-1.41,1.19-2.93,2.31-4.4,3.39l-.24,.18c-.09,.07-.18,.14-.28,.21l-19.1-6.32-1.97-.65-5.93-1.96c-4.82-2.85-4.24-8.06-4.24-8.06Zm12.06,19.01l-.55-.18c-4.18-2.48-3.67-7-3.67-7l2.63,.96,2.07,.76,15.78,5.76c-.35,.28-.71,.57-1.09,.89-1.12,.93-2.04,1.81-2.84,2.68-.05,.05-.11,.1-.15,.16l-9.76-3.23-2.42-.8Zm8.68,10.31s0,.03-.02,.06l-3.16-1.61c-.11-.12-.23-.25-.34-.38-1.6-1.94-1.34-4.26-1.34-4.26l.82,.3,5.94,2.16c-.68,.99-1.23,2.01-1.63,3.01-.1,.24-.19,.48-.27,.72Zm12.6,8.66c-4.24-1.04-8.11-3.01-11.37-5.69,.12-.43,.44-1.51,.47-1.59,.05-.14,.1-.27,.14-.41,.41-1.1,.99-2.18,1.73-3.24,.55-.8,1.18-1.58,1.93-2.39,.77-.83,1.67-1.68,2.77-2.62,.43-.34,.84-.69,1.28-1.02,.97-.76,1.98-1.5,2.99-2.24l.24-.17c1.53-1.12,3.11-2.27,4.58-3.54l.08-.07c.87-.75,1.59-1.48,2.15-2.19,1.06-1.31,1.62-2.61,1.72-3.95,.07-.97-.1-1.96-.52-2.95-.37-.87-.92-1.7-1.62-2.47-.74-.79-1.58-1.55-2.57-2.3,.08,0,.16,.02,.24,.03,.05,.02,.11,.03,.15,.03h.02c1.64,.33,2.93,.73,4.1,1.25,2.31,1.01,4.05,2.58,4.92,4.4,1.23,2.57,.87,6.11-.98,9.45-1.07,1.93-2.52,3.68-3.91,5.39-.65,.81-1.31,1.61-1.92,2.42-.11,.13-.22,.27-.31,.4-.86,1.17-1.63,2.34-2.29,3.5-.58,.97-1.11,2-1.58,3.06-.56,1.19-1.04,2.4-1.43,3.55-.1,.31-.28,.88-.47,1.5-.19,.65-.4,1.36-.54,1.86Zm17.9-11.96c-.45,1.33-.77,2.57-.98,3.75-.26,1.38-.36,2.63-.29,3.82,.01,.29,.03,.82,.06,1.4,.05,.65,.09,1.38,.16,1.9,.01,.04,.01,.07,.02,.11-.01,0-.02,0-.03,0l-1.38,.47s-.02,0-.03,.01c-2.71,.84-5.6,1.31-8.58,1.31-2.03,0-4-.22-5.91-.61,.14-.51,.35-1.22,.55-1.86,.16-.58,.33-1.11,.43-1.39,.38-1.14,.85-2.3,1.4-3.47,.46-1.03,.97-2.03,1.54-2.97,.64-1.14,1.38-2.28,2.23-3.42,.08-.13,.17-.24,.29-.38,.61-.82,1.26-1.61,1.91-2.41,1.42-1.73,2.89-3.52,4-5.53,2.03-3.66,2.4-7.42,1.01-10.32-.9-1.89-2.62-3.51-4.86-4.62,1.01,.13,1.97,.3,2.81,.51,.83,.2,1.67,.47,2.5,.8,2.27,.92,3.96,2.19,5.07,3.79,.29,.41,.55,.87,.76,1.36,.3,.64,.52,1.36,.68,2.1,.3,1.51,.32,3.19,.05,4.97-.04,.29-.1,.59-.16,.87-.23,1.15-.59,2.38-1.11,3.88l-.03,.09c-.3,.86-.61,1.71-.93,2.56-.37,.98-.74,1.95-1.07,2.94-.04,.11-.09,.25-.11,.33Zm5.82,7.77c-1.29,.78-2.86,1.49-4.23,2.02v-.03h0c-.02-.07-.02-.12-.03-.18-.09-.74-.19-1.62-.26-2.35-.05-.57-.09-1.04-.1-1.31-.01-.12-.02-.26-.02-.39,.01-.29,.03-.59,.06-.89,.05-.4,.11-.83,.19-1.26,0-.04,.01-.07,.01-.11,7.39-1.95,14.21-6.05,15.69-6.96,.07-.05,.16,.05,.11,.14-2.7,5.11-7.7,8.97-11.42,11.32Zm16.25-16.13l-4.47,1.59-2.48,.88h0l-12.18,4.34c.34-.98,.7-1.93,1.05-2.89,.34-.88,.67-1.77,.98-2.67l.03-.07c.02-.09,.06-.19,.09-.27l11.95-3.86,2.13-.68,2.07-.67c2.96-.64,5.7-2.96,5.7-2.96,0,.05,0,.1,.01,.16,.17,3.19-1.86,6.08-4.88,7.1Zm3.05-9.88l-6.39,2.14-1.96,.65-11.44,3.84c.26-1.8,.23-3.52-.09-5.08,0-.02-.01-.03-.01-.05l11.36-3.67,1.86-.6,5.77-1.86c3.18-.69,6.14-3.19,6.14-3.19,0,.06,.01,.12,.01,.17,.17,3.44-1.99,6.55-5.25,7.65Zm3.41-8.76l-10.67,3.62-1.84,.61-11.62,3.94s-.01-.03-.02-.04c-.24-.54-.53-1.05-.86-1.52-1.12-1.62-2.8-2.94-4.98-3.9l15.13-4.89,1.86-.59,11.72-3.78c4.51-.99,8.69-4.51,8.69-4.51,.01,.07,.01,.15,.02,.23,.25,4.86-2.83,9.27-7.43,10.83Z"/><g><g><path class="d" d="M61.54,86.54h.02c.05-.02,.11-.03,.16-.05,.09-.03,.19-.06,.29-.1,.1-.03,.23-.08,.36-.12l.18-.06c.12-.05,.25-.09,.37-.14l-1.38,.47Z"/><path class="f" d="M77.77,40.94l-1.76,.81c-4.72-7.78-13.28-12.99-23.03-12.99s-18.09,5.09-22.84,12.7l-1.71-.93c5.09-8.21,14.2-13.7,24.55-13.7s19.76,5.67,24.79,14.11Z"/></g><path class="f" d="M53.09,57.11c-.08,1.14-.57,2.27-1.51,3.43-.03,.04-.06,.08-.11,.13l-25.48-8.65-1.83-.62-12.66-4.29c-6.03-3.58-5.29-10.09-5.29-10.09l20.54,7.62,1.83,.69,23.85,8.85c.08,.15,.16,.29,.21,.44,.36,.85,.52,1.67,.45,2.49Z"/><path class="f" d="M48.91,62.27c-1.41,1.19-2.93,2.31-4.4,3.39l-.24,.18c-.09,.07-.18,.14-.28,.21l-19.1-6.32-1.97-.65-5.93-1.96c-4.82-2.85-4.24-8.06-4.24-8.06l10.56,3.86,1.83,.66,23.77,8.69Z"/><path class="f" d="M41.06,68.38c-.35,.28-.71,.57-1.09,.89-1.12,.93-2.04,1.81-2.84,2.68-.05,.05-.11,.1-.15,.16l-9.76-3.23-2.42-.8-.55-.18c-4.18-2.48-3.67-7-3.67-7l2.63,.96,2.07,.76,15.78,5.76Z"/><path class="f" d="M35.39,74.65c-.68,.99-1.23,2.01-1.63,3.01-.1,.24-.19,.48-.27,.72,0,.01,0,.03-.02,.06l-3.16-1.61c-.11-.12-.23-.25-.34-.38-1.6-1.94-1.34-4.26-1.34-4.26l.82,.3,5.94,2.16Z"/><path class="f" d="M92.52,48.08l-10.67,3.62-1.84,.61-11.62,3.94s-.01-.03-.02-.04c-.24-.54-.53-1.05-.86-1.52-1.12-1.62-2.8-2.94-4.98-3.9l15.13-4.89,1.86-.59,11.72-3.78c4.51-.99,8.69-4.51,8.69-4.51,.01,.07,.01,.15,.02,.23,.25,4.86-2.83,9.27-7.43,10.83Z"/><path class="f" d="M94.35,49.19c.17,3.44-1.99,6.55-5.25,7.65l-6.39,2.14-1.96,.65-11.44,3.84c.26-1.8,.23-3.52-.09-5.08,0-.02-.01-.03-.01-.05l11.36-3.67,1.86-.6,5.77-1.86c3.18-.69,6.14-3.19,6.14-3.19,0,.06,.01,.12,.01,.17Z"/><path class="f" d="M90.94,59.62c.17,3.19-1.86,6.08-4.88,7.1l-4.47,1.59-2.48,.88h0l-12.18,4.34c.34-.98,.7-1.93,1.05-2.89,.34-.88,.67-1.77,.98-2.67l.03-.07c.02-.09,.06-.19,.09-.27l11.95-3.86,2.13-.68,2.07-.67c2.96-.64,5.7-2.96,5.7-2.96,0,.05,0,.1,.01,.16Z"/><path class="f" d="M67.4,64.42c-.04,.29-.1,.59-.16,.87-.23,1.15-.59,2.38-1.11,3.88l-.03,.09c-.3,.86-.61,1.71-.93,2.56-.37,.98-.74,1.95-1.07,2.94-.04,.11-.09,.25-.11,.33-.45,1.33-.77,2.57-.98,3.75-.26,1.38-.36,2.63-.29,3.82,.01,.29,.03,.82,.06,1.4,.05,.65,.09,1.38,.16,1.9,.01,.04,.01,.07,.02,.11-.01,0-.02,0-.03,0l-1.38,.47s-.02,0-.03,.01c-2.71,.84-5.6,1.31-8.58,1.31-2.03,0-4-.22-5.91-.61,.14-.51,.35-1.22,.55-1.86,.16-.58,.33-1.11,.43-1.39,.38-1.14,.85-2.3,1.4-3.47,.46-1.03,.97-2.03,1.54-2.97,.64-1.14,1.38-2.28,2.23-3.42,.08-.13,.17-.24,.29-.38,.61-.82,1.26-1.61,1.91-2.41,1.42-1.73,2.89-3.52,4-5.53,2.03-3.66,2.4-7.42,1.01-10.32-.9-1.89-2.62-3.51-4.86-4.62,1.01,.13,1.97,.3,2.81,.51,.83,.2,1.67,.47,2.5,.8,2.27,.92,3.96,2.19,5.07,3.79,.29,.41,.55,.87,.76,1.36,.3,.64,.52,1.36,.68,2.1,.3,1.51,.32,3.19,.05,4.97Z"/><path class="f" d="M58.54,65.36c-1.07,1.93-2.52,3.68-3.91,5.39-.65,.81-1.31,1.61-1.92,2.42-.11,.13-.22,.27-.31,.4-.86,1.17-1.63,2.34-2.29,3.5-.58,.97-1.11,2-1.58,3.06-.56,1.19-1.04,2.4-1.43,3.55-.1,.31-.28,.88-.47,1.5-.19,.65-.4,1.36-.54,1.86-4.24-1.04-8.11-3.01-11.37-5.69,.12-.43,.44-1.51,.47-1.59,.05-.14,.1-.27,.14-.41,.41-1.1,.99-2.18,1.73-3.24,.55-.8,1.18-1.58,1.93-2.39,.77-.83,1.67-1.68,2.77-2.62,.43-.34,.84-.69,1.28-1.02,.97-.76,1.98-1.5,2.99-2.24l.24-.17c1.53-1.12,3.11-2.27,4.58-3.54l.08-.07c.87-.75,1.59-1.48,2.15-2.19,1.06-1.31,1.62-2.61,1.72-3.95,.07-.97-.1-1.96-.52-2.95-.37-.87-.92-1.7-1.62-2.47-.74-.79-1.58-1.55-2.57-2.3,.08,0,.16,.02,.24,.03,.05,.02,.11,.03,.15,.03h.02c1.64,.33,2.93,.73,4.1,1.25,2.31,1.01,4.05,2.58,4.92,4.4,1.23,2.57,.87,6.11-.98,9.45Z"/><path class="f" d="M81.23,71.53c-2.7,5.11-7.7,8.97-11.42,11.32-1.29,.78-2.86,1.49-4.23,2.02v-.03h0c-.02-.07-.02-.12-.03-.18-.09-.74-.19-1.62-.26-2.35-.05-.57-.09-1.04-.1-1.31-.01-.12-.02-.26-.02-.39,.01-.29,.03-.59,.06-.89,.05-.4,.11-.83,.19-1.26,0-.04,.01-.07,.01-.11,7.39-1.95,14.21-6.05,15.69-6.96,.07-.05,.16,.05,.11,.14Z"/><path class="d" d="M62.93,86.07c-.12,.05-.25,.09-.37,.14l-.18,.06c-.13,.04-.26,.09-.36,.12-.1,.04-.2,.07-.29,.1-.05,.02-.11,.03-.16,.05h-.02l1.38-.47Z"/></g></g></g></svg>